<svg id="svg" version="1.1" xmlns="http://www.w3.org/2000/svg" xmlns:xlink="http://www.w3.org/1999/xlink" width="400" height="282.6603325415677" viewBox="0, 0, 400,282.6603325415677"><g id="svgg"><path id="path0" d="M157.881 36.661 C 156.638 36.724,155.499 36.897,155.351 37.045 C 155.203 37.193,154.343 37.314,153.442 37.314 C 152.540 37.314,151.802 37.430,151.802 37.572 C 151.802 37.713,150.721 37.919,149.399 38.029 C 148.078 38.139,146.996 38.342,146.996 38.479 C 146.996 38.616,146.488 38.728,145.866 38.728 C 145.244 38.728,144.735 38.843,144.735 38.983 C 144.735 39.123,143.972 39.326,143.039 39.435 C 142.106 39.543,141.343 39.746,141.343 39.886 C 141.343 40.027,140.961 40.141,140.495 40.141 C 140.028 40.141,139.647 40.269,139.647 40.424 C 139.647 40.580,139.397 40.707,139.091 40.707 C 138.418 40.707,135.887 41.540,135.689 41.826 C 135.611 41.939,135.153 42.108,134.671 42.201 C 134.189 42.295,133.084 42.697,132.216 43.094 C 131.347 43.491,130.502 43.816,130.336 43.816 C 130.171 43.816,130.035 43.943,130.035 44.099 C 130.035 44.254,129.781 44.382,129.470 44.382 C 129.159 44.382,128.905 44.509,128.905 44.664 C 128.905 44.820,128.714 44.947,128.481 44.947 C 128.247 44.947,128.057 45.068,128.057 45.217 C 128.057 45.365,127.611 45.570,127.067 45.672 C 126.523 45.774,126.078 45.971,126.078 46.109 C 126.078 46.247,125.887 46.360,125.654 46.360 C 125.420 46.360,125.228 46.456,125.227 46.572 C 125.226 46.689,124.653 47.036,123.955 47.343 C 123.257 47.649,122.686 47.985,122.686 48.089 C 122.686 48.193,122.367 48.358,121.979 48.455 C 121.590 48.553,121.272 48.757,121.272 48.910 C 121.272 49.062,121.081 49.187,120.848 49.187 C 120.615 49.187,120.424 49.287,120.424 49.409 C 120.424 49.531,120.025 49.867,119.537 50.155 C 119.049 50.443,118.421 50.884,118.141 51.134 C 117.656 51.570,117.394 51.776,115.495 53.220 C 114.435 54.027,107.138 61.242,107.138 61.484 C 107.138 61.584,106.979 61.839,106.784 62.051 C 106.590 62.263,106.113 62.825,105.724 63.300 C 105.336 63.775,104.747 64.462,104.416 64.826 C 104.084 65.191,103.726 65.765,103.619 66.102 C 103.512 66.438,103.332 66.714,103.220 66.714 C 103.107 66.714,102.638 67.347,102.179 68.122 C 101.719 68.896,101.247 69.532,101.131 69.535 C 101.014 69.538,100.919 69.781,100.919 70.076 C 100.919 70.370,100.728 70.684,100.495 70.774 C 100.261 70.863,100.071 71.195,100.071 71.511 C 100.071 71.826,99.943 72.085,99.788 72.085 C 99.633 72.085,99.505 72.276,99.505 72.509 C 99.505 72.742,99.384 72.933,99.235 72.933 C 99.087 72.933,98.882 73.378,98.780 73.922 C 98.678 74.466,98.481 74.912,98.343 74.912 C 98.205 74.912,98.092 75.102,98.092 75.336 C 98.092 75.569,97.970 75.760,97.822 75.760 C 97.674 75.760,97.469 76.205,97.367 76.749 C 97.264 77.293,97.083 77.739,96.963 77.739 C 96.843 77.739,96.507 78.501,96.217 79.432 C 95.927 80.364,95.594 81.127,95.477 81.128 C 95.360 81.130,95.265 81.449,95.265 81.837 C 95.265 82.226,95.150 82.544,95.009 82.544 C 94.868 82.544,94.665 83.180,94.558 83.958 C 94.451 84.735,94.249 85.371,94.108 85.371 C 93.967 85.371,93.852 85.682,93.852 86.061 C 93.852 86.441,93.737 86.822,93.597 86.909 C 93.457 86.995,93.253 87.830,93.145 88.763 C 93.037 89.696,92.847 90.459,92.723 90.459 C 92.471 90.459,92.312 91.320,91.821 95.336 C 91.636 96.852,91.381 98.092,91.255 98.092 C 91.128 98.092,91.025 99.046,91.025 100.212 C 91.025 101.437,90.905 102.332,90.742 102.332 C 90.559 102.332,90.459 105.677,90.459 111.802 C 90.459 117.927,90.559 121.272,90.742 121.272 C 90.905 121.272,91.025 122.162,91.025 123.376 C 91.025 124.532,91.135 125.547,91.271 125.631 C 91.406 125.715,91.607 127.058,91.717 128.616 C 91.828 130.174,92.035 131.449,92.178 131.449 C 92.321 131.449,92.438 131.958,92.438 132.580 C 92.438 133.201,92.551 133.710,92.688 133.710 C 92.825 133.710,93.026 134.537,93.134 135.548 C 93.243 136.558,93.448 137.385,93.591 137.385 C 93.735 137.385,93.852 137.767,93.852 138.233 C 93.852 138.700,93.962 139.081,94.098 139.081 C 94.233 139.081,94.428 139.717,94.532 140.495 C 94.635 141.272,94.842 141.908,94.992 141.908 C 95.142 141.908,95.265 142.226,95.265 142.615 C 95.265 143.004,95.376 143.322,95.512 143.322 C 95.647 143.322,95.839 143.830,95.939 144.452 C 96.038 145.074,96.245 145.583,96.399 145.583 C 96.553 145.583,96.678 145.901,96.678 146.290 C 96.678 146.678,96.806 146.996,96.961 146.996 C 97.117 146.996,97.244 147.123,97.244 147.277 C 97.244 147.760,98.214 149.823,98.441 149.823 C 98.560 149.823,98.657 150.026,98.657 150.274 C 98.657 150.710,99.466 152.362,99.821 152.650 C 99.916 152.728,100.084 153.078,100.193 153.428 C 100.302 153.777,100.510 154.064,100.655 154.064 C 100.800 154.064,100.919 154.318,100.919 154.629 C 100.919 154.940,101.023 155.194,101.151 155.194 C 101.417 155.194,102.898 157.373,102.898 157.764 C 102.898 157.905,103.022 158.021,103.175 158.021 C 103.327 158.021,103.526 158.315,103.616 158.674 C 103.706 159.032,104.090 159.559,104.469 159.844 C 104.849 160.129,105.159 160.477,105.159 160.618 C 105.159 160.759,105.477 161.192,105.866 161.580 C 106.254 161.969,106.572 162.400,106.572 162.538 C 106.572 162.676,106.827 162.870,107.138 162.968 C 107.449 163.067,107.703 163.332,107.703 163.557 C 107.703 163.976,111.482 167.845,113.618 169.611 C 115.514 171.180,116.290 171.829,116.801 172.271 C 117.063 172.498,117.635 172.913,118.073 173.194 C 118.511 173.476,119.114 173.928,119.414 174.199 C 119.713 174.471,120.222 174.776,120.545 174.878 C 120.867 174.980,121.322 175.270,121.555 175.523 C 121.788 175.775,122.518 176.234,123.177 176.542 C 123.836 176.850,124.377 177.188,124.378 177.292 C 124.380 177.396,124.763 177.565,125.230 177.668 C 125.696 177.770,126.078 177.971,126.078 178.114 C 126.078 178.257,126.332 178.375,126.643 178.375 C 126.954 178.375,127.208 178.492,127.208 178.635 C 127.208 178.778,127.590 178.979,128.057 179.081 C 128.523 179.184,128.905 179.385,128.905 179.528 C 128.905 179.671,129.159 179.788,129.470 179.788 C 129.781 179.788,130.035 179.901,130.035 180.040 C 130.035 180.179,130.385 180.373,130.813 180.473 C 131.240 180.572,132.099 180.891,132.721 181.181 C 135.181 182.328,135.940 182.615,136.509 182.615 C 136.835 182.615,137.102 182.728,137.102 182.865 C 137.102 183.003,137.452 183.189,137.880 183.277 C 141.270 183.980,141.908 184.151,141.908 184.358 C 141.908 184.488,142.282 184.594,142.740 184.594 C 143.197 184.594,143.640 184.706,143.725 184.843 C 143.809 184.980,144.835 185.181,146.003 185.291 C 147.171 185.400,148.127 185.606,148.127 185.749 C 148.127 185.891,148.324 186.007,148.565 186.007 C 148.994 186.007,148.949 183.332,148.500 182.049 C 147.387 178.876,147.430 163.438,148.578 154.345 C 148.732 153.122,148.131 151.802,147.420 151.802 C 147.300 151.802,146.908 151.484,146.548 151.095 C 146.187 150.707,145.773 150.389,145.627 150.389 C 145.306 150.389,140.212 145.363,140.212 145.046 C 140.212 144.923,139.893 144.453,139.504 144.002 C 139.114 143.550,138.724 142.958,138.636 142.686 C 138.549 142.413,138.380 142.191,138.260 142.191 C 138.140 142.191,137.798 141.683,137.501 141.063 C 137.204 140.443,136.866 139.934,136.749 139.933 C 136.633 139.931,136.537 139.739,136.537 139.505 C 136.537 139.272,136.434 139.081,136.309 139.081 C 136.059 139.081,135.124 137.111,135.124 136.583 C 135.124 136.402,135.011 136.254,134.872 136.254 C 134.734 136.254,134.538 135.809,134.436 135.265 C 134.334 134.721,134.129 134.276,133.980 134.276 C 133.832 134.276,133.710 133.958,133.710 133.569 C 133.710 133.180,133.595 132.862,133.454 132.862 C 133.313 132.862,133.110 132.226,133.004 131.449 C 132.897 130.671,132.694 130.035,132.553 130.035 C 132.412 130.035,132.297 129.590,132.297 129.046 C 132.297 128.502,132.180 128.057,132.038 128.057 C 131.896 128.057,131.690 127.102,131.581 125.936 C 131.472 124.770,131.270 123.816,131.133 123.816 C 130.996 123.816,130.883 123.064,130.883 122.144 C 130.883 121.196,130.751 120.427,130.578 120.369 C 130.147 120.226,130.142 103.809,130.573 103.378 C 130.744 103.207,130.883 102.464,130.883 101.727 C 130.883 100.990,130.998 100.316,131.137 100.230 C 131.277 100.144,131.481 99.182,131.590 98.093 C 131.699 97.004,131.903 96.113,132.043 96.113 C 132.183 96.113,132.297 95.803,132.297 95.423 C 132.297 95.044,132.409 94.663,132.547 94.578 C 132.684 94.493,132.883 93.850,132.988 93.148 C 133.093 92.447,133.299 91.873,133.445 91.873 C 133.591 91.873,133.710 91.555,133.710 91.166 C 133.710 90.777,133.832 90.459,133.980 90.459 C 134.129 90.459,134.334 90.014,134.436 89.470 C 134.538 88.926,134.734 88.481,134.872 88.481 C 135.011 88.481,135.124 88.300,135.124 88.079 C 135.124 87.608,136.018 85.837,136.325 85.701 C 136.442 85.649,136.537 85.426,136.537 85.206 C 136.537 84.986,136.649 84.806,136.787 84.806 C 136.924 84.806,137.111 84.583,137.203 84.311 C 137.393 83.745,137.929 82.887,138.445 82.324 C 138.640 82.112,138.799 81.851,138.799 81.744 C 138.799 81.636,139.241 81.041,139.783 80.421 C 140.324 79.801,140.769 79.200,140.772 79.087 C 140.780 78.784,144.418 75.194,144.716 75.194 C 144.855 75.194,145.422 74.781,145.975 74.276 C 147.764 72.641,148.493 72.085,148.844 72.085 C 149.034 72.085,149.342 71.900,149.529 71.675 C 149.716 71.449,150.463 70.981,151.189 70.634 C 151.915 70.287,152.572 69.922,152.650 69.822 C 152.728 69.722,153.395 69.395,154.133 69.096 C 154.871 68.796,155.475 68.456,155.476 68.339 C 155.477 68.223,155.731 68.127,156.042 68.127 C 156.353 68.127,156.608 68.012,156.608 67.871 C 156.608 67.730,157.244 67.527,158.021 67.420 C 158.799 67.314,159.435 67.111,159.435 66.970 C 159.435 66.829,159.745 66.714,160.125 66.714 C 160.504 66.714,160.889 66.594,160.979 66.448 C 161.070 66.301,162.031 66.094,163.116 65.987 C 164.201 65.880,165.088 65.682,165.088 65.547 C 165.088 65.411,165.717 65.300,166.485 65.300 C 167.253 65.300,167.960 65.173,168.057 65.018 C 168.166 64.841,170.928 64.735,175.406 64.735 C 179.885 64.735,182.647 64.841,182.756 65.018 C 182.852 65.173,183.623 65.300,184.469 65.300 C 185.315 65.300,186.007 65.415,186.007 65.554 C 186.007 65.694,186.898 65.898,187.986 66.007 C 189.074 66.116,189.965 66.320,189.965 66.460 C 189.965 66.599,190.346 66.714,190.813 66.714 C 191.279 66.714,191.661 66.829,191.661 66.970 C 191.661 67.111,192.297 67.314,193.074 67.420 C 193.852 67.527,194.488 67.730,194.488 67.871 C 194.488 68.012,194.806 68.127,195.194 68.127 C 195.583 68.127,195.901 68.254,195.901 68.410 C 195.901 68.565,196.141 68.693,196.434 68.693 C 196.727 68.693,197.332 68.883,197.777 69.115 C 198.222 69.347,198.862 69.538,199.199 69.539 C 199.536 69.540,199.854 69.636,199.906 69.753 C 200.054 70.087,201.735 70.954,202.234 70.954 C 202.483 70.954,202.686 71.051,202.686 71.170 C 202.686 71.397,204.749 72.367,205.232 72.367 C 205.386 72.367,205.512 72.495,205.512 72.650 C 205.512 72.806,205.703 72.933,205.936 72.933 C 206.170 72.933,206.360 73.058,206.360 73.210 C 206.360 73.363,206.678 73.567,207.067 73.665 C 207.456 73.762,207.774 73.956,207.774 74.094 C 207.774 74.233,208.015 74.346,208.309 74.346 C 208.603 74.346,208.917 74.537,209.007 74.770 C 209.096 75.004,209.428 75.194,209.744 75.194 C 210.060 75.194,210.318 75.302,210.318 75.433 C 210.318 75.564,210.763 75.910,211.307 76.204 C 211.852 76.497,212.297 76.835,212.297 76.955 C 212.297 77.075,212.488 77.173,212.721 77.173 C 212.954 77.173,213.145 77.292,213.145 77.437 C 213.145 77.582,213.431 77.791,213.781 77.901 C 214.131 78.012,214.623 78.338,214.874 78.627 C 215.126 78.916,215.475 79.152,215.652 79.152 C 215.828 79.152,215.972 79.250,215.972 79.370 C 215.972 79.490,216.409 79.824,216.945 80.113 C 217.480 80.401,217.984 80.811,218.066 81.025 C 218.148 81.239,218.443 81.413,218.722 81.413 C 219.000 81.413,219.387 81.668,219.581 81.979 C 219.775 82.290,220.092 82.546,220.285 82.549 C 220.478 82.552,220.936 82.870,221.302 83.256 C 221.919 83.906,222.163 83.958,224.623 83.958 L 227.279 83.958 227.279 66.290 C 227.279 49.652,227.250 48.622,226.784 48.620 C 226.512 48.619,225.925 48.428,225.480 48.196 C 225.035 47.964,224.494 47.774,224.279 47.774 C 224.063 47.774,223.887 47.657,223.887 47.514 C 223.887 47.371,223.505 47.170,223.039 47.067 C 222.572 46.965,222.191 46.764,222.191 46.621 C 222.191 46.478,221.936 46.360,221.625 46.360 C 221.314 46.360,221.060 46.249,221.060 46.114 C 221.060 45.978,220.551 45.786,219.929 45.686 C 219.307 45.587,218.799 45.380,218.799 45.226 C 218.799 45.073,218.606 44.947,218.371 44.947 C 217.940 44.947,217.707 44.851,216.069 43.998 C 215.579 43.743,214.911 43.534,214.585 43.534 C 214.260 43.534,213.993 43.406,213.993 43.251 C 213.993 43.095,213.675 42.968,213.286 42.968 C 212.898 42.968,212.580 42.855,212.580 42.718 C 212.580 42.580,212.010 42.382,211.314 42.277 C 210.618 42.173,209.974 41.968,209.884 41.821 C 209.793 41.675,209.409 41.555,209.029 41.555 C 208.650 41.555,208.339 41.439,208.339 41.299 C 208.339 41.158,207.703 40.955,206.926 40.848 C 206.148 40.741,205.512 40.538,205.512 40.398 C 205.512 40.257,205.067 40.141,204.523 40.141 C 203.979 40.141,203.534 40.029,203.534 39.892 C 203.534 39.754,202.708 39.553,201.699 39.445 C 200.690 39.337,199.792 39.132,199.704 38.988 C 199.615 38.845,199.041 38.728,198.429 38.728 C 197.816 38.728,197.314 38.614,197.314 38.476 C 197.314 38.337,196.042 38.132,194.488 38.021 C 192.933 37.910,191.661 37.705,191.661 37.567 C 191.661 37.428,190.859 37.314,189.880 37.314 C 188.866 37.314,187.952 37.168,187.758 36.973 C 187.418 36.634,163.362 36.382,157.881 36.661 M160.283 113.640 C 160.283 118.782,160.394 122.968,160.530 122.968 C 160.666 122.968,161.568 121.946,162.534 120.697 C 166.574 115.475,173.700 108.853,178.443 105.916 C 179.491 105.266,180.350 104.640,180.351 104.523 C 180.352 104.406,175.837 104.311,170.318 104.311 L 160.283 104.311 160.283 113.640 M222.049 121.851 C 215.995 123.094,214.245 123.678,209.618 126.001 C 202.421 129.613,195.615 136.438,192.301 143.365 C 189.426 149.376,189.349 149.697,189.385 155.680 L 189.412 160.283 188.449 160.283 C 187.224 160.283,187.193 160.398,186.974 165.795 C 186.757 171.125,187.172 176.592,188.249 182.572 C 188.843 185.868,189.041 186.134,190.826 186.039 C 191.672 185.995,192.429 185.857,192.507 185.733 C 192.586 185.610,193.827 185.417,195.265 185.304 C 196.703 185.191,197.880 184.985,197.880 184.846 C 197.880 184.707,198.389 184.594,199.011 184.594 C 199.633 184.594,200.141 184.479,200.141 184.340 C 200.141 184.200,201.032 183.996,202.121 183.887 C 203.210 183.777,204.172 183.574,204.258 183.434 C 204.344 183.294,204.853 183.180,205.388 183.180 C 205.923 183.180,206.360 183.069,206.360 182.934 C 206.360 182.799,207.120 182.602,208.048 182.497 C 208.976 182.392,209.810 182.185,209.902 182.036 C 209.994 181.888,210.443 181.767,210.900 181.767 C 211.357 181.767,211.731 181.640,211.731 181.484 C 211.731 181.329,212.113 181.201,212.580 181.201 C 213.046 181.201,213.428 181.092,213.428 180.958 C 213.428 180.824,214.139 180.630,215.008 180.528 C 217.515 180.233,217.385 180.790,217.385 170.368 C 217.385 162.261,217.437 161.171,217.832 161.020 C 218.078 160.925,220.495 160.848,223.203 160.848 L 228.127 160.848 228.127 141.060 L 228.127 121.272 226.360 121.301 C 225.389 121.316,223.449 121.564,222.049 121.851 " stroke="none" fill="#1414b3" fill-rule="evenodd"></path><path id="path1" d="M215.124 93.197 C 213.958 93.261,212.883 93.435,212.735 93.583 C 212.587 93.731,211.736 93.852,210.844 93.852 C 209.951 93.852,209.151 93.964,209.067 94.100 C 208.982 94.237,207.830 94.440,206.506 94.550 C 205.182 94.660,204.099 94.866,204.099 95.008 C 204.099 95.149,203.661 95.265,203.126 95.265 C 202.591 95.265,202.085 95.375,202.002 95.510 C 201.918 95.645,201.183 95.844,200.367 95.953 C 199.551 96.061,198.753 96.251,198.594 96.376 C 198.434 96.501,197.986 96.674,197.597 96.762 C 195.444 97.249,194.308 97.600,193.282 98.096 C 192.654 98.399,191.712 98.728,191.190 98.826 C 190.668 98.924,190.171 99.117,190.086 99.255 C 190.001 99.393,189.684 99.505,189.383 99.505 C 189.081 99.505,188.834 99.633,188.834 99.788 C 188.834 99.943,188.708 100.071,188.553 100.071 C 188.070 100.071,186.007 101.041,186.007 101.268 C 186.007 101.387,185.816 101.484,185.583 101.484 C 185.350 101.484,185.159 101.597,185.159 101.735 C 185.159 101.873,184.714 102.070,184.170 102.172 C 183.625 102.274,183.180 102.479,183.180 102.628 C 183.180 102.776,182.989 102.898,182.756 102.898 C 182.523 102.898,182.332 102.997,182.332 103.118 C 182.332 103.240,181.959 103.480,181.502 103.652 C 180.851 103.898,180.706 104.094,180.829 104.562 C 180.918 104.906,180.851 105.159,180.669 105.159 C 179.103 105.159,167.536 115.060,164.515 118.987 C 164.206 119.389,163.242 120.644,162.372 121.778 C 161.093 123.444,160.715 123.775,160.395 123.510 C 160.178 123.329,160.000 123.300,160.000 123.446 C 160.000 123.591,159.777 123.956,159.505 124.258 C 159.233 124.559,158.756 125.311,158.445 125.929 C 158.134 126.546,157.659 127.300,157.388 127.604 C 157.118 127.908,156.815 128.420,156.714 128.742 C 156.614 129.065,156.447 129.392,156.343 129.470 C 156.080 129.667,155.194 131.608,155.194 131.986 C 155.194 132.157,155.097 132.297,154.978 132.297 C 154.758 132.297,154.158 133.571,153.479 135.477 C 153.272 136.060,153.008 136.537,152.893 136.537 C 152.779 136.537,152.599 137.110,152.494 137.809 C 152.389 138.509,152.191 139.081,152.053 139.081 C 151.915 139.081,151.802 139.399,151.802 139.788 C 151.802 140.177,151.687 140.495,151.546 140.495 C 151.405 140.495,151.202 141.131,151.095 141.908 C 150.988 142.686,150.786 143.322,150.645 143.322 C 150.504 143.322,150.389 143.756,150.389 144.287 C 150.389 144.819,150.265 145.296,150.114 145.347 C 149.963 145.399,149.753 146.364,149.649 147.491 C 149.545 148.618,149.351 149.541,149.217 149.541 C 149.084 149.541,148.975 149.960,148.975 150.473 C 148.975 150.987,148.821 151.560,148.633 151.748 C 148.366 152.016,148.397 152.270,148.778 152.914 C 149.234 153.686,149.236 153.926,148.815 156.657 C 148.161 160.904,148.167 175.529,148.824 180.212 C 149.149 182.523,149.239 184.303,149.109 185.795 C 148.987 187.177,149.019 187.986,149.195 187.986 C 149.349 187.986,149.564 188.940,149.673 190.106 C 149.782 191.272,149.988 192.226,150.130 192.226 C 150.272 192.226,150.389 192.608,150.389 193.074 C 150.389 193.541,150.504 193.922,150.645 193.922 C 150.786 193.922,150.988 194.558,151.095 195.335 C 151.202 196.113,151.405 196.820,151.546 196.907 C 151.687 196.994,151.802 197.376,151.802 197.755 C 151.802 198.135,151.913 198.445,152.049 198.445 C 152.184 198.445,152.377 198.960,152.478 199.588 C 152.647 200.645,153.118 201.782,153.528 202.120 C 153.622 202.198,153.787 202.739,153.894 203.322 C 154.002 203.905,154.211 204.382,154.359 204.382 C 154.508 204.382,154.629 204.636,154.629 204.947 C 154.629 205.258,154.756 205.512,154.912 205.512 C 155.067 205.512,155.194 205.652,155.194 205.823 C 155.194 206.162,156.059 208.111,156.310 208.339 C 156.396 208.417,156.709 208.958,157.006 209.541 C 157.302 210.124,157.638 210.601,157.752 210.601 C 157.867 210.601,158.040 210.919,158.137 211.307 C 158.235 211.696,158.439 212.014,158.592 212.014 C 158.744 212.014,158.869 212.255,158.869 212.549 C 158.869 212.844,159.062 213.158,159.298 213.249 C 159.533 213.339,159.851 213.703,160.004 214.056 C 160.420 215.021,160.918 215.756,161.625 216.451 C 161.975 216.794,162.261 217.154,162.261 217.251 C 162.261 217.347,162.420 217.601,162.615 217.815 C 162.809 218.029,163.413 218.733,163.958 219.379 C 166.090 221.912,171.567 227.171,173.286 228.335 C 173.675 228.599,174.240 229.041,174.541 229.319 C 174.842 229.596,175.172 229.823,175.274 229.823 C 175.376 229.823,175.829 230.142,176.281 230.532 C 176.733 230.921,177.357 231.320,177.668 231.418 C 177.979 231.516,178.297 231.685,178.375 231.794 C 178.666 232.202,181.785 234.057,182.469 234.229 C 182.860 234.327,183.180 234.521,183.180 234.660 C 183.180 234.798,183.371 234.912,183.604 234.912 C 183.837 234.912,184.028 235.025,184.028 235.163 C 184.028 235.301,184.473 235.498,185.018 235.600 C 185.562 235.702,186.007 235.877,186.007 235.989 C 186.007 236.191,188.071 237.173,188.497 237.173 C 188.905 237.173,190.243 237.876,190.245 238.092 C 190.246 238.208,190.487 238.304,190.780 238.304 C 191.074 238.304,191.678 238.494,192.123 238.726 C 192.568 238.958,193.157 239.149,193.431 239.150 C 193.706 239.151,194.151 239.275,194.421 239.426 C 195.232 239.878,197.570 240.565,198.297 240.565 C 198.671 240.565,199.056 240.693,199.152 240.848 C 199.248 241.004,199.630 241.131,200.000 241.131 C 200.370 241.131,200.744 241.245,200.830 241.385 C 200.917 241.524,201.879 241.728,202.968 241.837 C 204.058 241.947,205.020 242.151,205.106 242.290 C 205.192 242.430,205.773 242.544,206.396 242.544 C 207.019 242.544,207.755 242.666,208.033 242.814 C 208.311 242.963,210.210 243.173,212.255 243.281 C 214.299 243.388,215.972 243.585,215.972 243.717 C 215.972 244.032,237.942 244.031,238.137 243.716 C 238.219 243.584,240.031 243.385,242.164 243.274 C 244.297 243.164,246.264 242.954,246.536 242.809 C 246.808 242.663,247.611 242.544,248.321 242.544 C 249.031 242.544,249.611 242.433,249.611 242.298 C 249.611 242.163,250.756 241.962,252.155 241.853 C 253.555 241.743,254.700 241.536,254.700 241.392 C 254.700 241.248,255.201 241.131,255.814 241.131 C 256.426 241.131,256.997 241.019,257.082 240.881 C 257.167 240.744,258.063 240.543,259.074 240.435 C 260.085 240.327,260.985 240.121,261.074 239.978 C 261.162 239.835,261.665 239.717,262.191 239.717 C 262.717 239.717,263.214 239.608,263.297 239.474 C 263.380 239.340,264.049 239.148,264.785 239.048 C 266.172 238.857,267.769 238.415,268.618 237.987 C 268.888 237.850,269.429 237.739,269.819 237.739 C 270.210 237.739,270.530 237.628,270.530 237.492 C 270.530 237.357,271.293 237.160,272.226 237.054 C 273.159 236.949,273.922 236.741,273.922 236.594 C 273.922 236.446,274.233 236.325,274.612 236.325 C 274.992 236.325,275.372 236.213,275.457 236.075 C 275.542 235.937,276.204 235.736,276.929 235.627 C 277.653 235.519,278.513 235.293,278.840 235.127 C 280.099 234.485,280.386 234.379,281.382 234.192 C 281.947 234.086,282.479 233.887,282.564 233.749 C 282.649 233.611,282.966 233.498,283.268 233.498 C 283.569 233.498,283.816 233.380,283.816 233.235 C 283.816 233.091,284.102 232.932,284.452 232.882 L 285.088 232.792 285.160 196.820 L 285.232 160.848 257.174 160.886 C 241.743 160.906,226.636 161.002,223.604 161.098 L 218.092 161.272 218.017 170.308 C 217.972 175.762,217.832 179.454,217.664 179.622 C 217.504 179.782,217.385 181.810,217.385 184.367 L 217.385 188.834 231.802 188.834 L 246.219 188.834 246.219 202.827 L 246.219 216.820 242.756 216.856 C 240.852 216.876,238.975 216.947,238.587 217.015 C 237.647 217.179,236.976 217.175,235.618 216.997 C 234.996 216.916,232.325 216.779,229.682 216.692 C 226.884 216.601,224.837 216.418,224.782 216.254 C 224.730 216.099,224.134 215.972,223.456 215.972 C 222.779 215.972,222.152 215.855,222.063 215.711 C 221.975 215.568,221.077 215.362,220.068 215.254 C 219.059 215.146,218.233 214.945,218.233 214.808 C 218.233 214.671,217.852 214.558,217.385 214.558 C 216.919 214.558,216.537 214.431,216.537 214.276 C 216.537 214.120,216.297 213.993,216.004 213.993 C 215.711 213.993,215.107 213.803,214.661 213.571 C 214.216 213.338,213.565 213.148,213.216 213.147 C 212.866 213.146,212.580 213.046,212.580 212.924 C 212.580 212.803,211.943 212.457,211.166 212.155 C 210.389 211.854,209.753 211.508,209.753 211.387 C 209.753 211.265,209.498 211.166,209.187 211.166 C 208.876 211.166,208.622 211.053,208.622 210.914 C 208.622 210.775,208.273 210.575,207.847 210.468 C 207.421 210.361,207.008 210.188,206.929 210.084 C 206.849 209.979,205.926 209.323,204.876 208.624 C 203.827 207.926,202.968 207.258,202.968 207.140 C 202.968 207.022,202.832 206.926,202.667 206.926 C 202.345 206.926,197.474 202.147,197.285 201.647 C 197.223 201.483,196.891 200.982,196.545 200.533 C 194.910 198.407,193.922 197.008,193.921 196.817 C 193.920 196.702,193.539 196.035,193.074 195.336 C 192.609 194.636,192.228 193.841,192.227 193.569 C 192.227 193.297,192.099 193.074,191.943 193.074 C 191.788 193.074,191.661 192.898,191.661 192.682 C 191.661 192.467,191.471 191.926,191.238 191.481 C 191.006 191.036,190.815 190.385,190.814 190.035 C 190.814 189.686,190.686 189.399,190.530 189.399 C 190.375 189.399,190.247 189.081,190.247 188.693 C 190.247 188.304,190.120 187.986,189.965 187.986 C 189.809 187.986,189.682 187.672,189.682 187.289 C 189.682 186.905,189.451 186.469,189.168 186.317 C 188.666 186.049,188.337 185.210,187.718 182.615 C 186.183 176.189,186.179 159.717,187.711 159.717 C 187.822 159.717,188.003 158.572,188.112 157.173 C 188.221 155.774,188.429 154.629,188.572 154.629 C 188.716 154.629,188.834 154.191,188.834 153.656 C 188.834 153.121,188.961 152.605,189.117 152.509 C 189.272 152.413,189.399 151.547,189.399 150.584 C 189.400 147.880,193.260 139.283,195.326 137.385 C 195.411 137.307,195.838 136.764,196.275 136.178 C 200.086 131.065,208.392 125.236,214.700 123.247 C 215.322 123.050,216.085 122.791,216.396 122.671 C 216.707 122.550,217.915 122.240,219.081 121.981 C 220.247 121.722,221.583 121.399,222.049 121.264 C 223.565 120.824,227.845 120.593,227.845 120.951 C 227.845 121.181,229.533 121.272,233.781 121.272 C 237.550 121.272,239.717 121.375,239.717 121.555 C 239.717 121.712,240.471 121.837,241.413 121.837 C 242.346 121.837,243.110 121.948,243.110 122.084 C 243.110 122.219,244.000 122.418,245.088 122.525 C 246.177 122.632,247.067 122.839,247.067 122.985 C 247.067 123.131,247.449 123.251,247.915 123.251 C 248.382 123.251,248.763 123.366,248.763 123.507 C 248.763 123.648,249.399 123.851,250.177 123.958 C 250.954 124.065,251.590 124.267,251.590 124.408 C 251.590 124.549,251.908 124.664,252.297 124.664 C 252.686 124.664,253.004 124.792,253.004 124.947 C 253.004 125.102,253.314 125.230,253.694 125.230 C 254.073 125.230,254.454 125.343,254.539 125.481 C 254.624 125.619,255.045 125.817,255.474 125.921 C 256.606 126.194,257.809 126.748,257.809 126.995 C 257.809 127.112,257.972 127.208,258.170 127.208 C 258.369 127.208,259.267 127.590,260.166 128.057 C 261.065 128.523,261.984 128.905,262.208 128.905 C 262.432 128.905,262.615 129.032,262.615 129.187 C 262.615 129.343,262.806 129.470,263.039 129.470 C 263.272 129.470,263.463 129.595,263.463 129.747 C 263.463 129.900,263.781 130.104,264.170 130.202 C 264.558 130.299,264.876 130.478,264.876 130.598 C 264.876 130.719,265.099 130.894,265.371 130.988 C 265.643 131.083,266.247 131.412,266.714 131.720 C 267.180 132.028,267.931 132.488,268.383 132.742 C 268.835 132.997,269.463 133.446,269.779 133.740 C 270.095 134.035,270.448 134.276,270.563 134.276 C 270.678 134.276,270.940 134.435,271.146 134.629 C 271.786 135.234,273.592 136.537,273.792 136.537 C 273.896 136.537,274.382 136.857,274.871 137.248 C 276.045 138.188,276.181 138.287,277.166 138.920 C 277.628 139.217,278.257 139.693,278.562 139.977 C 279.018 140.402,279.589 140.495,281.749 140.495 L 284.382 140.495 284.382 123.014 L 284.382 105.532 283.662 105.204 C 283.266 105.024,282.693 104.876,282.390 104.876 C 282.086 104.876,281.837 104.749,281.837 104.594 C 281.837 104.438,281.647 104.311,281.413 104.311 C 281.180 104.311,280.989 104.190,280.989 104.041 C 280.989 103.893,280.544 103.688,280.000 103.586 C 279.456 103.484,279.011 103.318,279.011 103.218 C 279.011 102.998,277.750 102.435,276.676 102.175 C 276.247 102.072,275.826 101.874,275.740 101.735 C 275.655 101.597,275.338 101.484,275.036 101.484 C 274.735 101.484,274.488 101.357,274.488 101.201 C 274.488 101.046,274.241 100.919,273.939 100.919 C 273.637 100.919,273.312 100.792,273.216 100.636 C 273.119 100.481,272.845 100.353,272.606 100.353 C 272.200 100.353,270.737 99.790,269.624 99.204 C 269.358 99.065,268.627 98.868,267.998 98.768 C 267.370 98.667,266.855 98.474,266.855 98.338 C 266.855 98.203,266.545 98.092,266.165 98.092 C 265.786 98.092,265.404 97.977,265.317 97.836 C 265.230 97.695,264.522 97.492,263.745 97.385 C 262.968 97.278,262.332 97.089,262.332 96.966 C 262.332 96.842,261.919 96.667,261.413 96.578 C 258.438 96.054,256.699 95.663,256.513 95.477 C 256.397 95.360,255.885 95.265,255.376 95.265 C 254.867 95.265,254.379 95.150,254.292 95.009 C 254.205 94.868,252.923 94.662,251.444 94.551 C 249.965 94.440,248.685 94.237,248.601 94.100 C 248.516 93.964,247.638 93.852,246.650 93.852 C 245.511 93.852,244.812 93.728,244.741 93.515 C 244.629 93.179,220.208 92.917,215.124 93.197 " stroke="none" fill="#b41414" fill-rule="evenodd"></path><path id="path2" d="M180.306 104.542 C 180.254 104.668,179.322 105.345,178.233 106.046 C 173.408 109.152,166.854 115.217,162.997 120.146 C 162.086 121.310,161.089 122.484,160.781 122.756 C 160.412 123.081,160.352 123.247,160.605 123.239 C 160.816 123.232,161.816 122.128,162.827 120.786 C 166.845 115.448,174.104 108.813,179.576 105.477 C 180.159 105.121,180.636 104.713,180.636 104.571 C 180.636 104.249,180.433 104.231,180.306 104.542 M225.517 121.194 C 226.026 121.257,226.789 121.256,227.214 121.191 C 227.638 121.127,227.223 121.075,226.290 121.077 C 225.357 121.079,225.009 121.131,225.517 121.194 M221.657 121.578 C 220.432 121.818,219.742 122.137,220.518 122.103 C 221.448 122.062,224.519 121.328,223.746 121.331 C 223.279 121.333,222.339 121.444,221.657 121.578 M218.092 122.403 C 217.574 122.625,217.586 122.647,218.233 122.661 C 218.622 122.670,219.131 122.554,219.364 122.403 C 219.920 122.043,218.929 122.043,218.092 122.403 M213.710 123.816 C 213.333 124.060,213.333 124.090,213.710 124.090 C 213.943 124.090,214.325 123.967,214.558 123.816 C 214.935 123.573,214.935 123.542,214.558 123.542 C 214.325 123.542,213.943 123.666,213.710 123.816 M211.449 124.806 C 210.749 125.180,210.256 125.493,210.353 125.500 C 210.626 125.519,213.145 124.371,213.145 124.227 C 213.145 123.981,212.712 124.129,211.449 124.806 M208.481 126.307 C 204.436 128.551,196.262 135.296,196.861 135.895 C 196.915 135.949,197.834 135.086,198.903 133.978 C 201.496 131.292,204.013 129.267,206.926 127.525 C 209.930 125.727,210.210 125.548,210.035 125.534 C 209.958 125.528,209.258 125.875,208.481 126.307 M196.128 136.749 C 195.401 137.592,193.463 140.585,192.970 141.625 C 192.712 142.170,192.662 142.376,192.858 142.083 C 194.650 139.418,196.699 136.254,196.634 136.254 C 196.590 136.254,196.362 136.477,196.128 136.749 M191.136 145.199 C 190.788 145.914,190.563 146.558,190.635 146.630 C 190.707 146.702,191.032 146.158,191.358 145.422 C 192.127 143.683,191.956 143.511,191.136 145.199 M189.996 147.876 C 189.822 148.376,189.729 148.834,189.789 148.894 C 189.850 148.955,190.042 148.595,190.216 148.096 C 190.390 147.596,190.483 147.138,190.423 147.078 C 190.362 147.017,190.170 147.376,189.996 147.876 M148.322 155.767 C 148.219 156.152,148.149 157.102,148.167 157.880 L 148.199 159.293 148.441 157.456 C 148.698 155.506,148.634 154.601,148.322 155.767 M147.935 161.413 C 147.935 162.424,147.986 162.837,148.049 162.332 C 148.112 161.827,148.112 161.000,148.049 160.495 C 147.986 159.989,147.935 160.403,147.935 161.413 M187.031 161.000 C 186.934 161.253,186.875 162.181,186.900 163.062 L 186.944 164.664 187.128 162.686 C 187.324 160.564,187.308 160.279,187.031 161.000 M220.283 161.059 C 221.643 161.110,223.869 161.110,225.230 161.059 C 226.590 161.007,225.477 160.964,222.756 160.964 C 220.035 160.964,218.922 161.007,220.283 161.059 M217.512 170.318 C 217.512 175.449,217.550 177.588,217.597 175.071 C 217.643 172.554,217.643 168.356,217.597 165.742 C 217.550 163.128,217.512 165.187,217.512 170.318 M147.678 168.339 C 147.677 170.982,147.720 172.102,147.772 170.827 C 147.824 169.552,147.824 167.389,147.773 166.021 C 147.721 164.653,147.678 165.696,147.678 168.339 M186.679 168.198 C 186.679 169.986,186.725 170.717,186.781 169.823 C 186.837 168.929,186.837 167.466,186.781 166.572 C 186.725 165.678,186.679 166.410,186.679 168.198 M186.946 173.852 C 186.946 174.862,186.997 175.276,187.060 174.770 C 187.122 174.265,187.122 173.438,187.060 172.933 C 186.997 172.428,186.946 172.841,186.946 173.852 M147.935 175.265 C 147.935 176.276,147.986 176.689,148.049 176.184 C 148.112 175.678,148.112 174.852,148.049 174.346 C 147.986 173.841,147.935 174.254,147.935 175.265 M187.188 177.244 C 187.178 177.633,187.276 178.459,187.404 179.081 L 187.638 180.212 187.637 179.223 C 187.636 177.976,187.215 176.122,187.188 177.244 M148.155 179.105 C 148.171 180.025,148.290 181.095,148.419 181.484 C 148.561 181.909,148.591 181.288,148.494 179.929 C 148.302 177.225,148.116 176.772,148.155 179.105 M187.756 181.060 C 187.764 181.371,187.867 182.007,187.986 182.473 L 188.202 183.322 188.215 182.473 C 188.223 182.007,188.119 181.371,187.986 181.060 L 187.743 180.495 187.756 181.060 M148.712 183.486 C 148.723 184.018,148.843 184.707,148.977 185.018 C 149.135 185.381,149.164 185.079,149.059 184.170 C 148.865 182.489,148.685 182.134,148.712 183.486 M188.571 185.072 C 188.560 185.412,188.678 185.770,188.834 185.866 C 189.168 186.072,189.168 185.796,188.834 185.018 C 188.600 184.473,188.590 184.475,188.571 185.072 " stroke="none" fill="#78148c" fill-rule="evenodd"></path><path id="path3" d="M166.912 115.972 L 165.795 117.173 166.996 116.056 C 168.114 115.016,168.328 114.770,168.114 114.770 C 168.068 114.770,167.527 115.311,166.912 115.972 M198.163 134.134 C 197.476 134.834,196.978 135.406,197.055 135.406 C 197.133 135.406,197.759 134.834,198.445 134.134 C 199.132 133.435,199.630 132.862,199.552 132.862 C 199.475 132.862,198.849 133.435,198.163 134.134 M148.193 160.000 C 148.193 160.544,148.251 160.767,148.322 160.495 C 148.393 160.223,148.393 159.777,148.322 159.505 C 148.251 159.233,148.193 159.456,148.193 160.000 M217.794 170.035 C 217.794 175.011,217.833 177.006,217.879 174.470 C 217.926 171.934,217.926 167.863,217.879 165.424 C 217.832 162.985,217.794 165.060,217.794 170.035 M186.653 163.816 C 186.655 164.594,186.710 164.878,186.775 164.448 C 186.840 164.019,186.839 163.383,186.771 163.035 C 186.704 162.687,186.651 163.039,186.653 163.816 M147.932 164.664 C 147.934 165.597,147.986 165.945,148.049 165.437 C 148.112 164.929,148.111 164.165,148.047 163.741 C 147.982 163.316,147.931 163.731,147.932 164.664 M147.932 172.014 C 147.934 172.947,147.986 173.295,148.049 172.786 C 148.112 172.278,148.111 171.515,148.047 171.090 C 147.982 170.666,147.931 171.081,147.932 172.014 M186.657 172.721 C 186.657 173.576,186.710 173.926,186.775 173.498 C 186.840 173.071,186.840 172.371,186.775 171.943 C 186.710 171.516,186.657 171.866,186.657 172.721 M148.193 176.678 C 148.193 177.223,148.251 177.445,148.322 177.173 C 148.393 176.901,148.393 176.456,148.322 176.184 C 148.251 175.912,148.193 176.134,148.193 176.678 " stroke="none" fill="#9c1461" fill-rule="evenodd"></path><path id="path4" d="M177.048 107.300 L 176.254 108.027 177.173 107.388 C 177.678 107.036,178.092 106.709,178.092 106.661 C 178.092 106.437,177.779 106.629,177.048 107.300 M163.109 120.495 C 162.692 121.063,162.624 121.261,162.930 121.013 C 163.393 120.636,164.094 119.576,163.879 119.576 C 163.825 119.576,163.479 119.989,163.109 120.495 M222.191 121.276 C 221.892 121.472,222.060 121.500,222.756 121.372 C 223.975 121.149,224.205 120.988,223.298 120.994 C 222.922 120.996,222.424 121.123,222.191 121.276 M148.758 155.760 C 148.758 156.304,148.816 156.527,148.887 156.254 C 148.959 155.982,148.959 155.537,148.887 155.265 C 148.816 154.993,148.758 155.216,148.758 155.760 M148.053 165.159 C 147.965 167.530,147.979 170.933,148.085 172.721 C 148.235 175.252,148.283 174.299,148.303 168.410 C 148.318 164.251,148.303 160.848,148.271 160.848 C 148.239 160.848,148.141 162.788,148.053 165.159 M186.649 175.265 C 186.649 175.965,186.705 176.251,186.772 175.901 C 186.839 175.551,186.839 174.979,186.772 174.629 C 186.705 174.279,186.649 174.565,186.649 175.265 M148.758 181.201 C 148.758 181.746,148.816 181.968,148.887 181.696 C 148.959 181.424,148.959 180.979,148.887 180.707 C 148.816 180.435,148.758 180.657,148.758 181.201 " stroke="none" fill="#a51451" fill-rule="evenodd"></path></g></svg>